<?xml version="1.0" encoding="UTF-8"?>
<svg id="_Слой_1" data-name="Слой_1" xmlns="http://www.w3.org/2000/svg" viewBox="0 0 465.89 389.85">
  <defs>
    <style>
      .cls-1 {
        fill: #206cac;
      }

      .cls-2 {
        fill: #cbcaca;
      }

      .cls-3 {
        fill: #b4b4b4;
      }

      .cls-4 {
        fill: #8f8e8f;
      }

      .cls-5 {
        fill: gray;
      }

      .cls-6 {
        fill: #717070;
      }

      .cls-7 {
        fill: #9c9b9b;
      }

      .cls-8 {
        fill: #1e3550;
      }

      .cls-9 {
        fill: #fefdfe;
      }

      .cls-10 {
        fill: #313130;
      }

      .cls-11 {
        fill: #edeced;
      }

      .cls-12 {
        fill: #3684c5;
      }

      .cls-13 {
        fill: #0f4a7e;
      }

      .cls-14 {
        fill: #a9a8a8;
      }

      .cls-15 {
        fill: #193b60;
      }

      .cls-16 {
        fill: #535353;
      }
    </style>
  </defs>
  <path class="cls-16" d="M216.48,364.77c12.55-1.64,25.11-3.27,37.66-4.91.94-.18,1.88-.35,2.82-.53,12.13-1.31,24.26-2.76,36.41-3.84,3.57-.32,4.09-1.86,3.95-4.94-.35-7.39-.39-14.79-.55-22.18.57-.05,1.14-.09,1.71-.14.04.33.1.65.18.97,0,4.15.01,8.29.02,12.44-.03,3.1.02,6.2-.11,9.3-.1,2.49.9,3.44,3.38,3.12,5.62-.72,11.25-1.4,16.89-2,1.94-.21,2.79-1.18,2.68-3.03-.23-3.76.53-7.59-.78-11.28-.09-5.23-.18-10.46-.26-15.69-.33-6.42,1.25-12.95-1.11-19.25.06-9.8.13-19.6.19-29.4.53-.01,1.07-.03,1.6-.04.1,2.01.21,4.02.31,6.03.38,11.07.77,22.14,1.15,33.21.32,5.54.64,11.08.96,16.62.24,4.09.51,8.18.7,12.27.14,3.08-.98,7.06.54,9.03,1.97,2.55,5.77-.24,8.74-.59,6.74-.8,13.65-.57,20.18-2.86q7.06-.35,7.06-7.54c0-9.14-.35-18.31.13-27.43.3-5.68-.42-9.69-7.09-9.97-.12-3.42-.24-6.85-.36-10.27-.02-4.49-.05-8.99-.07-13.48.23-9.8.46-19.6.7-29.4,1.9-.05,4.27,1.45,5.41-1.23.51-1.2.77-3.14-.34-3.88-1.81-1.22-3.34,1.32-5.25,1.12-.13-2.03-.27-4.05-.4-6.08-.03-7.62-.06-15.24-.1-22.86.21-7.02.42-14.05.63-21.07,3.31,1.42,5.05.91,4.65-3.26-.29-3.07-.28-6.22.07-9.28.47-4.07-1.37-5.27-5.01-4.87-.15-.31-.32-.61-.5-.9.13-.35.25-.7.38-1.05,3.05-.06,5.87-.29,6.44-4.3.16-1.12,1.66-.93,2.69-.91-.2,2.9.44,5,4.07,4.21,0,.92,0,1.85-.01,2.77-2.02.25-2.91,1.26-2.88,3.42.08,7.91.02,15.82-.02,23.73,0,1.86.42,3.41,2.3,4.2.37,2.01.75,4.02,1.12,6.03-2.15,6.8.23,13.68-.36,20.52-.21,2.4.06,4.48-2.79,6.02-2.72,1.47-1.91,9.47.82,10.02,9.75,1.95,19.19,5.42,29.22,6.03,2.99,1.97,2.5,5.05,2.51,7.95.07,23.97.1,47.94.23,71.92.01,1.93-.9,4.2,1.22,5.73,1.81,1.68,4.34.03,6.79,1.64-6.1.91-11.7,1.75-17.3,2.58-8.27.95-16.54,1.9-24.82,2.85-4.46.57-8.92,1.14-13.38,1.71-4.56.43-9.19.24-13.65,1.53-3.76.48-7.51.96-11.27,1.44-8,.91-16,1.81-24,2.72-.72.03-1.44.06-2.17.1-.33.27-.66.54-.98.82-5.83-.73-11.51,1.06-17.3,1.33-3.08.15-6.78-.29-9.77,1.67-5.55-.49-11.05.36-16.46,1.25-6.77,1.11-13.76.64-20.34,2.93-.8-.05-1.59-.09-2.39-.14l-1.38.03c-4.46.12-8.93.24-13.39.35.07-.33.1-.67.09-1.01Z"/>
  <path class="cls-6" d="M387.69,347.18c5.6-.84,11.2-1.67,17.3-2.58-2.46-1.61-4.98.04-6.79-1.64,1.61-25.74.62-51.52,1.03-77.28,6.86,8.47,11.95,18.11,17.78,27.25,15.77,24.75,31.21,49.71,46.75,74.61,3.23,5.18,3.18,5.21-2.91,5.43-18.12.65-36.23,1.3-54.35,1.95-.5-2.87-2.26-4.65-4.52-6.47-6.9-5.57-10.32-13.62-14.29-21.25Z"/>
  <path class="cls-15" d="M162.35,132.93c9.63-16.71,20.37-32.72,30.9-48.85,2.44-.45,2.73-2.91,4.04-4.4,5.74-6.52,7.2-16.45,16.21-20.41.36-.16.7-.87.69-1.31-.18-8.7,6.19-14.25,10.26-20.8,4.3-6.91,11.99-8,18.19-3.04,2.85,2.28,5.92,2.47,9.23,2.17,2.17,4.1,4.33,8.2,6.5,12.3.88,1.67.81,3.18-.22,4.85-2.16,3.51-4.44,7-6.11,10.75-2.59,5.8-7.06,10.6-8.72,16.85-2.79,1.71-3.86,4.74-5.61,7.25-4.5,6.46-7.52,13.88-12.85,19.8-3.4-1.8-6.35-3.92-7.35-8.01-.41-1.69-1.82-2.77-3.58-3.42-3.14-1.16-5.52-3.1-7.01-6.32-1.18-2.55-3.1-4.63-6.49-3.26.46-.99.92-1.97,1.38-2.96,4.15-6.14,8.06-12.42,11.37-19.03-.39-.23-.78-.46-1.17-.69-3.72,5.9-7.43,11.8-11.15,17.71-6.97,8.81-12.9,18.31-18.49,28.03-4.84,7.29-9.68,14.59-14.52,21.88-2.17-1.7-3.75.18-5.51.92ZM213.57,63l.31.2.02-.37-.32.17Z"/>
  <path class="cls-8" d="M224.87,108.07c5.33-5.92,8.35-13.34,12.85-19.8,1.75-2.51,2.82-5.55,5.61-7.25,3.94,2.14,5.36-1.44,6.82-3.5,5.17-7.26,9.95-14.8,14.91-22.21,1.53-2.29,1.37-4.52,0-6.77-4.45-7.33-8.82-14.71-13.38-21.97-2.01-3.2-3.39-6.89-7.12-9.07l7.33,18.77c-3.31.3-6.38.11-9.23-2.17-6.2-4.96-13.89-3.87-18.19,3.04-4.07,6.55-10.44,12.09-10.26,20.8,0,.45-.33,1.15-.69,1.31-9.01,3.96-10.47,13.89-16.21,20.41-1.31,1.49-1.6,3.96-4.04,4.4,12.78-20.54,25.54-41.08,38.35-61.6,4.64-7.43,9.4-14.78,14.31-22.48,8.63,16.99,16.97,33.48,25.42,49.92,1.08,2.1.96,3.5-.38,5.55-19.17,29.18-38.33,58.37-57.24,87.72-21.88,33.94-43.54,68.03-65.24,102.09-2.41,3.78-4.44,7.79-6.65,11.69-.49.52-1.59.96-.72,1.78.3.28,1.37-.26,2.08-.43,20.96-8.9,41.93-17.81,62.89-26.71.33.57.65,1.13.98,1.7-21.17,10.67-42.77,20.41-64.34,30.23.14-3.61-5.86-4-4.38-8.31,4.49-7.54,8.97-15.09,13.46-22.63,11.7-18.1,22-37.03,32.57-55.79,7.62-12.85,15.23-25.7,22.85-38.55,1.77-2.73,3.88-5.3,5.26-8.22,3.59-7.64,9.77-13.79,12.4-21.95Z"/>
  <path class="cls-1" d="M55.96,314.89c11.52-4.96,23-10.01,34.57-14.84,19.1-7.99,38.26-15.84,57.39-23.75,1.72,0,3.45.02,5.18.03l-.04-.04c-1.03,1.03-2.06,2.06-3.08,3.09-9.02,4.18-18.03,8.36-27.05,12.54-6.59,2.75-13.18,5.5-19.77,8.25-4.91,1.62-9.68,3.55-13.87,6.76,5.62-1.27,11.02-3.07,16.09-5.79,6.82-2.73,13.64-5.46,20.47-8.19,2.47-.8,4.95-1.6,7.42-2.4-1.45,2.23.2,3.76,1.1,5.59,4.28,8.7,13.21,13.96,16.96,23.03-16.02,6.84-32.04,13.68-48.05,20.52.04-1.92-.37-3.53-1.5-5.28-5.01-7.71-13.56-12.87-16.08-22.37-.39-1.47-1.75-1.48-3.01-.94-9.59,4.15-19.88,6.44-29.32,11-1.05.27-2.1.55-3.15.82,1.4-1.84,1.19-4.48,3.06-6.09,1.98.89,1.59-1.55,2.69-1.91Z"/>
  <path class="cls-3" d="M399.23,265.67c-.42,25.76.57,51.54-1.03,77.28-2.12-1.54-1.21-3.81-1.22-5.73-.13-23.97-.16-47.94-.23-71.92,0-2.89.47-5.98-2.51-7.95-.56-1.26-.98-2.6-1.69-3.76-7.38-12.08-14.82-24.13-22.21-36.21-.74-1.21-1.42-2.39-2.98-2.62-.37-2.01-.75-4.02-1.12-6.03,1.25-1.48.74-3.26.77-4.91.13-7.67.18-15.34.25-23.01,4.13-.93,8.55-1.22,12.33-2.93,5.16-2.33,7.85.21,10.18,3.84,1.85,2.87,3.16,6.09,4.67,9.18.85,1.75,1.73,3.41,4.02,3.46.26,23.77.53,47.53.79,71.3Z"/>
  <path class="cls-5" d="M254.72,95.78c-1.22-1.98-1.01-3.76.32-5.73,6.66-9.88,13.22-19.82,19.79-29.77,1.24-1.88,2.11-3.13,3.84-.21,12.69,21.39,25.5,42.72,38.26,64.07.26.43.36.96.54,1.45-7.99-1.06-15.74-2.5-21.06-9.61-3.19-4.25-8.13-5.47-12.56-3.66-.33-.03-.65-.05-.98-.07-.11-2.89,0-5.74-.49-8.66-.65-3.82-2.84-4.58-5.75-3.57-5.47,1.91-11.07,1.82-16.7,1.93-1.4-1.81-2.81-3.62-4.21-5.42-.04-.64-.4-.85-1-.74Z"/>
  <path class="cls-4" d="M216.39,365.78c4.46-.12,8.93-.24,13.39-.35.48.91.94.77,1.38-.03.8.05,1.59.09,2.39.14,2.09.98,4.65.16,6.39.72,9.44,3.05,18.64.39,27.8-.67,10.83-1.26,21.67,4.69,27.59,13.39-18.35.66-36.7,1.33-55.05,2-1.08-4.62-7.99-10.32-13.42-10.07-10.29.47-20.57,1.36-30.81,2.4-11.77,1.2-23.41,3.4-35.3,3.85-9.75.37-19.44,2.22-29.2,2.62-10.7.44-20.69,5.32-31.51,4.54-1.46-.11-2.82.11-3.03,1.98-.7.02-1.4.04-2.1.05-.12-.85-.24-1.74-1.33-1.85-1.39-.14-1.66.83-1.78,1.9-2.03.08-4.05.15-6.08.23-1.04-1.79-2.83-1.12-4.35-1.34-.12-2.38,3.86-1.86,3.24-4.6,1.71-.14,3.42-.29,5.13-.43,5.47,3.8,11.39,2.08,17.09,1.01,1.73-.33,4.72-.41,4.8-3.59,20.69-2.58,41.39-5.15,62.08-7.72,8.37-1.04,16.75-2.07,25.12-3.1.01.28,0,.57-.04.85-.08.13-.16.26-.23.39.07-.14.14-.27.21-.41,5.94.02,11.94.48,17.62-1.9Z"/>
  <path class="cls-8" d="M44.02,376.84c-14.17,4.95-28.53,9.22-44.02,13.01,1.31-1.87,2.06-2.95,2.81-4.03,4.66-1.06,6.86-4.99,9.37-8.38,8.28-11.14,16.39-22.41,24.57-33.63,3.16,4.14,4.85,9.16,8.99,12.81,6.41,5.65,5.93,6.91-2.15,9.98-.32.12-.69.14-.99.29-3.64,1.82-7.28,3.66-11.84,5.97,3.17.95,4.72,0,6.19-.65,8.79-3.96,17.61-7.87,26.24-12.16,3-1.49,6.91-1.47,8.9-4.83,2.11.06,3.78-1.43,5.69-1.77,3.18-.56,5.49-4.03,9.18-2.66-3.15,6-6.57,11.1-14.23,12.7-9.03,1.89-17.36,6.46-26.44,8.54-1.78.41-4.02.93-4.71,2.76-.56,1.49,1.98.87,2.45,2.04Z"/>
  <path class="cls-5" d="M97.02,386.29c.21-1.88,1.56-2.09,3.03-1.98,10.82.78,20.81-4.09,31.51-4.54,9.75-.4,19.45-2.26,29.2-2.62,11.89-.45,23.53-2.65,35.3-3.85,10.25-1.04,20.53-1.93,30.81-2.4,5.42-.25,12.33,5.45,13.42,10.07-29.13,1.16-58.26,2.38-87.4,3.48-18.62.7-37.24,1.24-55.87,1.85Z"/>
  <path class="cls-13" d="M162.35,132.93c1.77-.74,3.34-2.62,5.51-.92-1.87,2.85-3.8,5.68-5.61,8.57-10.41,16.63-20.82,33.26-31.18,49.92-9.36,15.06-18.66,30.17-27.98,45.26-7.89,12.59-15.8,25.16-23.65,37.77-.69,1.11-1.77,2.22-1.2,3.78l.03-.03c-.89-.17-1.03.39-1.06,1.07l.03-.03c-.35.35-.71.71-1.06,1.06,0,0,.02,0,.02,0-.36.8-.72,1.61-1.09,2.41-1.53,1.99-3.07,3.99-4.6,5.98-2.64-1.29-1.49-3.32-1.06-5.24.3-1.35,2.19-2.42.76-4.09,10.9-17.37,21.76-34.77,32.71-52.11,18.97-30.03,37.99-60.03,57.01-90.03.46-.72,1.03-1.37,1.55-2.05,1.59.39.58-.92.89-1.36l-.03.02Z"/>
  <path class="cls-3" d="M254.22,181.65c-.23-7.94-.71-15.88.22-23.8,3.66-.15,5.22-2.99,6.82-5.58,2.09-3.37,4.23-6.71,7.15-9.4,4.97-4.58,11.66-5.13,16.33-1.54.14,1,.27,2,.41,3-.04,5.68-.08,11.37-.13,17.05-1.08.83-2.14,1.67-3.23,2.47-8.21,6.04-15.56,13.24-24.55,18.24-1.01-.15-2.02-.29-3.03-.44Z"/>
  <path class="cls-6" d="M285.15,144.33c-.14-1-.27-2-.41-3,.07-1.74.14-3.48.21-5.22-.37-7.93-.73-15.86-1.1-23.79,4.43-1.81,9.38-.6,12.56,3.66,5.33,7.11,13.07,8.54,21.06,9.61.93.87,1.78,1.78,1.8,3.17.46,2.4-.95,3.89-2.6,5.22-3.72,3-7.23,6.38-11.28,8.84-4.81,2.92-7.93,8.05-13.44,9.93-4.42-1.06-3.37-6.55-6.8-8.41Z"/>
  <path class="cls-14" d="M284.95,136.11c-.07,1.74-.14,3.48-.21,5.22-4.67-3.59-11.36-3.04-16.33,1.54-2.92,2.69-5.06,6.03-7.15,9.4-1.61,2.59-3.16,5.42-6.82,5.58-.7-15.85-.6-31.71-.17-47.56.13-4.65.24-9.3.35-13.94.37.06.73.12,1.1.18,1.4,1.81,2.81,3.62,4.21,5.42,3.38,6.2,6.26,12.72,11.49,17.71.94,5.68,5.15,9.61,7.66,14.44,1.52,2.92,3.38,2.89,5.86,2.02Z"/>
  <path class="cls-5" d="M387.69,347.18c3.97,7.63,7.38,15.69,14.29,21.25,2.26,1.82,4.03,3.6,4.52,6.47-9.33.68-18.66,1.3-28.02.9-.23-4.3-3.38-6.93-5.6-10.16-3.49-5.09-9.85-8.39-10.01-15.61,8.27-.95,16.54-1.9,24.82-2.85Z"/>
  <path class="cls-8" d="M103.27,339.67c16.02-6.84,32.04-13.68,48.05-20.52,14.44-5.66,28.81-11.51,42.71-18.42,1.89-.87,4.18-.88,5.65-2.64.9-.06,1.81-.12,2.34-1.02,9.05-2.35,17.3-6.64,25.76-10.43,1.84.07,3.2-1.15,4.78-1.77,4.12-1.6,8.11-4.39,12.61-3.83,4.93.61,7.28-1.35,8.43-5.71.12,1.01.24,2.01.36,3.02,0,1.22-.68,2.08-1.48,2.89-25.49,10.66-50.92,21.46-76.49,31.94-26.19,10.74-51.82,22.83-78.34,32.78-2.63.99-2.71,3.92-4.81,5.15-.42,0-.85-.02-1.27-.02,2.59-5.14,5.37-10.09,11.69-11.41Z"/>
  <path class="cls-15" d="M70.23,278.46c1.43,1.67-.46,2.74-.76,4.09-.42,1.92-1.58,3.95,1.06,5.24.17.49.34.97.5,1.46.5.34.84.15,1.11-.32,17.16-7.56,34.24-15.29,51.52-22.57,5.98-2.52,11.52-5.12,14.67-11.14-1.48,4.32,4.52,4.7,4.38,8.31-25.1,12.47-50.52,24.28-76.03,35.88-.93.42-1.97.58-2.96.86-4.59.81-4.2,6.14-7.43,8.18.27-2.14,1.63-5.02-2.73-4.02,5.55-8.65,11.11-17.31,16.66-25.96Z"/>
  <path class="cls-14" d="M398.44,194.37c-2.29-.05-3.17-1.71-4.02-3.46-1.5-3.09-2.82-6.31-4.67-9.18-2.33-3.62-5.02-6.17-10.18-3.84-3.78,1.71-8.19,2-12.33,2.93-.14-1.14-.27-2.28-.41-3.43,0-.92,0-1.85.01-2.77,5.25-1.9-.69-4.17.21-6.21,1.87-2.85,5.18-3.21,7.92-4.5,6.71-3.16,13.45-6.24,20.19-9.31,1.76-.8,3.88-1.86,3.83,1.58-.17,12.73.81,25.48-.56,38.2Z"/>
  <path class="cls-12" d="M53.57,304.43c4.36-1,3,1.88,2.73,4.02-1.01,2.78-2.02,5.57-3.03,8.35-1.86,1.6-1.66,4.25-3.06,6.09-4.49,6.98-8.97,13.95-13.46,20.93-8.17,11.22-16.28,22.49-24.57,33.63-2.51,3.38-4.71,7.31-9.37,8.38,4.67-9.22,10.73-17.59,16.16-26.34,11.43-18.41,23.05-36.71,34.59-55.06Z"/>
  <path class="cls-13" d="M149.98,279.37c1.03-1.03,2.06-2.06,3.08-3.09.33-.28,1.31.43,1.07-.71-.34.25-.69.5-1.03.75-1.73,0-3.45-.02-5.17-.03,15.25-6.35,30.51-12.68,45.74-19.07,19.69-8.27,39.35-16.59,59.03-24.89.32.14.64.28.96.42.12,1.01.24,2.02.37,3.04-.09.66-.18,1.32-.27,1.97-7.06,2.59-14.2,4.97-21.16,7.8-27.57,11.19-55.08,22.53-82.61,33.81Z"/>
  <path class="cls-7" d="M295.34,378.98c-5.92-8.71-16.77-14.65-27.59-13.39-9.16,1.06-18.36,3.72-27.8.67-1.74-.56-4.3.26-6.39-.72,6.58-2.29,13.57-1.82,20.34-2.93,5.42-.89,10.91-1.74,16.46-1.25,1.78,1.61,3.69,1.83,6.13,1.46,11.81-1.77,23.21-2.12,31.34,9.25,1.42,1.98,3.24,3.46,3.15,6.11-5.13,1.8-10.42.78-15.64.81Z"/>
  <path class="cls-6" d="M362.77,170.41c-1.03-.02-2.53-.21-2.69.91-.57,4-3.39,4.23-6.44,4.29-.05-1.98,1.37-2.6,2.89-3.12,1.71-.6,2.34-1.88,2.33-3.6-.06-18.97-.11-37.93-.15-56.9,0-2.95-1.23-3.92-3.79-2.23-6.59,4.34-13.42,8.35-19.06,13.99-1.7,1.06-3.4,2.12-5.1,3.18-.14-1-.39-1.93-1.39-2.44,10.49-8.51,20.99-17.02,31.47-25.55,1.19-.97,2.03-1.33,2.22.68.12.45.24.9.36,1.35-.05,22.35-.1,44.7-.15,67.05-.17.79-.34,1.59-.51,2.38Z"/>
  <path class="cls-3" d="M300.58,357.43c8-.91,16-1.81,24-2.71-.54,3.54,1.78,5.63,3.71,8.12,3.44,4.45,10.53,6.8,8.68,14.44-5.85,1.51-11.81.65-17.72.78-3.2-7.87-6.65-15.57-16.13-17.56-2.02-.42-2.63-1.25-2.53-3.06Z"/>
  <path class="cls-7" d="M335.84,353.28c4.46-1.29,9.09-1.1,13.65-1.53-.34,2.31.4,4.09,1.79,6.09,3.69,5.29,9.09,8.64,13.69,12.87,1.73,1.59,3.39,2.81,3.07,5.4-4.08,1.2-8.24.79-12.38.61-.41-4.88-4.84-6.15-7.82-8.74-4.83-4.21-11.76-6.73-12-14.7Z"/>
  <path class="cls-4" d="M368.04,376.1c.32-2.58-1.35-3.81-3.07-5.4-4.6-4.23-10-7.58-13.69-12.87-1.39-1.99-2.13-3.78-1.79-6.09,4.46-.57,8.92-1.15,13.38-1.72.16,7.23,6.52,10.52,10.01,15.61,2.21,3.23,5.37,5.87,5.6,10.16-3.48.1-6.96.19-10.44.29Z"/>
  <path class="cls-14" d="M335.84,353.28c.23,7.97,7.16,10.49,12,14.7,2.98,2.59,7.41,3.85,7.82,8.74-6.23.19-12.46.37-18.69.56,1.85-7.63-5.24-9.99-8.68-14.44-1.93-2.49-4.25-4.58-3.71-8.12,3.76-.48,7.51-.96,11.27-1.44Z"/>
  <path class="cls-2" d="M252.49,281.23c.8-.81,1.49-1.67,1.48-2.89,1.79-3.51.41-7.28.88-10.9.22-1.7-.83-3.87,1.7-4.74.12,2.05.33,4.11.33,6.16.05,18.74.07,37.48.1,56.23,0,11.41-.01,22.83-.02,34.24-.94.18-1.88.35-2.82.53-.07-19.66-.14-39.31-.2-58.97-.02-5,.01-10-.03-15.01-.01-1.67.43-3.53-1.43-4.65Z"/>
  <path class="cls-15" d="M91.58,351.08c.42,0,.85.02,1.27.02-2.4,4.16-4.82,8.3-7.17,12.49-.53.95-1.05,1.68-2.17,1.98-7.63,2.03-15.25,4.11-22.87,6.18-2.15-1.45-4.01-1.74-5.06,1.25-3.52,2.29-7.63,2.78-11.56,3.85-.47-1.17-3.01-.55-2.45-2.04.69-1.83,2.93-2.35,4.71-2.76,9.08-2.08,17.41-6.65,26.44-8.54,7.66-1.6,11.08-6.7,14.23-12.7,1.51.61,3,1.58,4.63.27ZM52.64,373.24c-.12-.05-.24-.09-.37-.14l-.06.53c.13-.03.28-.02.38-.09.06-.04.03-.2.04-.31Z"/>
  <path class="cls-14" d="M300.58,357.43c-.1,1.81.51,2.64,2.53,3.06,9.48,1.98,12.94,9.69,16.13,17.56-2.75.04-5.51.08-8.26.12.08-2.65-1.73-4.12-3.15-6.11-8.14-11.37-19.53-11.01-31.34-9.25-2.44.36-4.35.15-6.13-1.46,2.99-1.96,6.69-1.52,9.77-1.67,5.79-.28,11.46-2.06,17.3-1.33.33-.27.66-.54.98-.82.72-.03,1.44-.06,2.17-.1Z"/>
  <path class="cls-2" d="M253.75,237.76c.09-.66.18-1.32.27-1.97,1.02-1.15,1.06-2.18-.37-3.04-.32-.14-.64-.28-.96-.42,2.61-5.8,2.68-12.81.53-17.56-1.91-4.2,1.31-5.75,1.02-8.78-.78-8.04-.12-16.22-.03-24.34,1.01.15,2.02.29,3.03.44-.1,1.89-.26,3.78-.27,5.67-.1,16.74-.17,33.47-.24,50.21-.97-.01-1.95-.02-2.92-.03l-.06-.17Z"/>
  <path class="cls-7" d="M56.3,387.68c-11.98.64-23.96,1.27-35.94,1.91-.05-.49-.1-.98-.14-1.47,15.92-1.83,31.83-3.67,47.75-5.5-.98,3.3-3.7,3.56-6.48,3.77-1.79.13-3.82-.59-5.18,1.3Z"/>
  <path class="cls-16" d="M329.38,124.49c1,.51,1.24,1.45,1.39,2.44-12.17,9.71-24.51,19.19-37.21,28.19-1.47-.16-1.44-1.34-1.61-2.39,5.51-1.88,8.63-7.01,13.45-9.93,4.06-2.46,7.56-5.84,11.28-8.84,1.65-1.33,3.06-2.82,2.6-5.22,1.21,1.24,2.15,1.72,3.77.14,1.81-1.77,4.2-2.96,6.33-4.4Z"/>
  <path class="cls-7" d="M111.63,377.68c-.08,3.18-3.06,3.26-4.8,3.59-5.7,1.07-11.62,2.79-17.09-1.01,7.2-1.67,14.51-2.37,21.89-2.58Z"/>
  <path class="cls-16" d="M207.06,233.3c-.33-.57-.65-1.13-.98-1.7,9.67-4.19,19.34-8.38,29.01-12.58.02.41.05.82.07,1.24-9.37,4.34-18.73,8.69-28.1,13.03Z"/>
  <path class="cls-7" d="M84.62,380.69c.62,2.73-3.36,2.22-3.24,4.6-.34.02-.69.03-1.03.03-2.06,0-4.11-.07-6.17.03-2.12.1-3.27-.68-3.17-2.91,4.45-1.27,9.01-1.65,13.61-1.74Z"/>
  <path class="cls-4" d="M71.01,382.43c-.1,2.24,1.05,3.01,3.17,2.91,2.05-.1,4.11-.02,6.17-.03.03.53.06,1.05.09,1.58-8.02.92-16.08.75-24.14.78,1.36-1.89,3.39-1.17,5.18-1.3,2.79-.21,5.51-.47,6.48-3.77,1.02-.06,2.03-.12,3.05-.18Z"/>
  <path class="cls-8" d="M53.27,316.8c1.01-2.78,2.02-5.57,3.03-8.35,3.23-2.04,2.84-7.37,7.42-8.18-1.72,5.33-5.26,9.7-7.76,14.62-1.09.36-.7,2.8-2.69,1.91Z"/>
  <path class="cls-6" d="M198.8,367.7c.04-.28.06-.56.04-.85,5.88-.7,11.76-1.39,17.64-2.09.01.34-.02.68-.09,1.01-5.69,2.39-11.68,1.92-17.62,1.9l.03.02Z"/>
  <path class="cls-3" d="M362.77,170.41c.17-.79.34-1.59.51-2.38,1.26.13,2.51.25,3.77.38-.9,2.04,5.05,4.31-.21,6.21-3.63.79-4.27-1.31-4.07-4.21Z"/>
  <path class="cls-6" d="M235.15,220.27c-.02-.41-.05-.82-.07-1.24,3.78-2.24,7.78-3.9,12.1-4.79-3.7,2.68-7.8,4.48-12.04,6.03Z"/>
  <path class="cls-5" d="M80.44,386.9c-.03-.53-.06-1.05-.09-1.58.34,0,.69-.01,1.03-.03,1.52.22,3.31-.45,4.35,1.34-1.76.09-3.53.18-5.29.27Z"/>
  <path class="cls-8" d="M55.58,372.99c1.05-2.99,2.92-2.7,5.06-1.25-1.75.17-3.16,1.72-5.06,1.25Z"/>
  <path class="cls-5" d="M91.81,386.4c.12-1.08.4-2.05,1.78-1.9,1.09.11,1.21,1,1.33,1.85-1.04.02-2.07.04-3.11.05Z"/>
  <path class="cls-15" d="M162.38,132.91c-.32.44.7,1.75-.89,1.36.3-.45.6-.91.89-1.36Z"/>
  <path class="cls-3" d="M363.43,100.98c-.12-.45-.24-.9-.36-1.35.57.33.92.72.36,1.35Z"/>
  <path class="cls-2" d="M255.72,96.52c-.37-.06-.73-.12-1.1-.18-.02-.2.02-.39.1-.56.6-.1.96.1,1,.74Z"/>
  <path class="cls-3" d="M335.86,123.75c5.64-5.64,12.47-9.65,19.06-13.99,2.57-1.69,3.79-.72,3.79,2.23.04,18.97.09,37.93.15,56.9,0,1.73-.62,3-2.33,3.6-1.52.53-2.94,1.15-2.89,3.12-.13.35-.25.7-.38,1.05-5.11,1.11-9.36,4.23-14.15,6.05-7.19,2.73-13.53,7.26-20.93,9.48,0-10.5,0-20.99,0-31.49-.49-.02-.98-.04-1.47-.06-1.34,2-.05,4.6-1.1,6.67-6.84-1.01-13.19-4.49-20.31-4.08-1.05-.86-1.79-1.91-2.03-3.27.5-.67.89-1.48,1.52-1.98,12.48-9.7,24.96-19.39,37.51-29,1.84-1.41,3.66-2.61,3.55-5.24Z"/>
  <path class="cls-11" d="M256.96,359.33c0-11.41.01-22.83.02-34.24,2.23-.25,1.83-1.96,2.06-3.47,1.63-10.88.82-21.84.97-32.76,11.79,1.7,23.57,3.4,35.36,5.1.23,2.56.58,5.11.66,7.68.3,8.91.5,17.82.75,26.73.16,7.39.2,14.79.55,22.18.14,3.08-.37,4.62-3.95,4.94-12.15,1.08-24.28,2.53-36.41,3.84Z"/>
  <path class="cls-14" d="M353.43,216.05c.03,7.62.06,15.24.1,22.86-3.51-.25-5.96,2.55-9.15,3.21-.9.18-1.71.73-1.82,1.62-.16,1.31,1.06,1.72,1.98,2.01,2.94.92,5.93,1.69,8.9,2.51.29.17.51.41.66.72-.23,9.8-.46,19.6-.69,29.41-.48-.17-1.23-.21-1.39-.54-5.17-10.49-14.18-19.15-15.11-31.65,1.34-.33,2.75-1.12.58-1.94-5.56-2.1-10.95-4.8-16.97-5.47-1.23-4.6,1.09-9.58-1.49-14.04-1.31-4.24-.65-8.53-.36-12.81,6.07.08,11.2-3.04,16.33-5.5,4.52-2.17,6.56-.74,8.45,2.96,2.08,4.08,5.12,6.76,10,6.65Z"/>
  <path class="cls-3" d="M336.9,246.2c.93,12.51,9.94,21.17,15.11,31.65.16.33.91.37,1.39.54.02,4.49.05,8.99.07,13.48-1.88.22-3.24-.63-4.51-1.93-7.53-7.74-17.32-9.64-27.49-10.54-.1-2.01-.21-4.02-.31-6.03.17-6.73.6-13.47-.46-20.17.21-.6.42-1.2.63-1.81,5.39-1.13,9.99-4.61,15.56-5.19Z"/>
  <path class="cls-14" d="M321.47,279.4c10.17.9,19.96,2.81,27.49,10.54,1.27,1.31,2.64,2.16,4.51,1.93.12,3.42.24,6.85.36,10.27-.12,3.15-.24,6.3-.36,9.45-1.54.01-3.11.14-4.51-.73-4.45-2.79-9.16-1.82-13.83-.9-4.18.82-8.34,1.76-12.51,2.64-.38-11.07-.77-22.14-1.15-33.21Z"/>
  <path class="cls-5" d="M367.34,214.78c1.56.23,2.24,1.4,2.98,2.62,7.39,12.08,14.83,24.13,22.21,36.21.71,1.16,1.13,2.5,1.69,3.76-10.02-.61-19.46-4.08-29.22-6.03-2.73-.54-3.54-8.55-.82-10.02,2.85-1.54,2.58-3.61,2.79-6.02.59-6.84-1.79-13.72.36-20.52Z"/>
  <path class="cls-7" d="M322.62,312.6c4.17-.88,8.33-1.82,12.51-2.64,4.68-.92,9.38-1.89,13.83.9,1.39.88,2.96.74,4.51.73,0,6.58.01,13.16.02,19.73-1.65.16-3.24.42-4.96.41-8.42-.03-16.49-3.25-24.95-2.52-.32-5.54-.64-11.08-.96-16.62Z"/>
  <path class="cls-4" d="M323.58,329.22c8.46-.73,16.53,2.49,24.95,2.52,1.72,0,3.31-.26,4.96-.41.08,5.25.16,10.5.24,15.75-6.53,2.29-13.44,2.06-20.18,2.86-2.96.35-6.77,3.14-8.74.59-1.52-1.97-.4-5.95-.54-9.03-.19-4.09-.46-8.18-.7-12.27Z"/>
  <path class="cls-2" d="M318.19,192.19c7.4-2.22,13.74-6.76,20.93-9.48,4.78-1.82,9.04-4.94,14.15-6.05.18.29.35.59.5.9-.16,5.2-.33,10.4-.49,15.61-6.08-.16-10.88,3.71-16.41,5.28-6.03,1.71-11.33,5.62-17.81,6.06-.29-4.1-.58-8.21-.87-12.31Z"/>
  <path class="cls-14" d="M319.37,302.81c2.36,6.3.78,12.83,1.11,19.25-6.93-1.39-13.86-2.78-20.79-4.16-.01-7.68-.03-15.36-.04-23.03,6.27.12,12.21,2.94,18.58,2.22.12,1.96-.34,4.04,1.15,5.73Z"/>
  <path class="cls-3" d="M319.06,204.5c6.48-.43,11.78-4.34,17.81-6.06,5.54-1.57,10.33-5.44,16.41-5.28.26.6.52,1.21.77,1.81-.21,7.02-.42,14.05-.63,21.07-4.88.1-7.92-2.57-10-6.65-1.89-3.7-3.93-5.13-8.45-2.96-5.13,2.46-10.25,5.59-16.33,5.51.13-2.48.27-4.96.41-7.44Z"/>
  <path class="cls-7" d="M299.69,317.9c6.93,1.39,13.86,2.77,20.79,4.16.09,5.23.18,10.46.26,15.69-6.69,1.03-13.43.89-20.17.88-.52-3.1,1.07-6.45-1.07-9.37l.19-11.36Z"/>
  <path class="cls-4" d="M300.57,338.63c6.73.02,13.47.15,20.17-.88,1.32,3.69.56,7.52.78,11.28.11,1.85-.74,2.82-2.68,3.03-5.64.6-11.27,1.28-16.89,2-2.48.32-3.49-.63-3.38-3.12.13-3.1.08-6.2.11-9.3,2.08-.09,1.83-1.65,1.89-3.01Z"/>
  <path class="cls-6" d="M353.73,347.08c-.08-5.25-.16-10.5-.24-15.75,0-6.58-.01-13.16-.02-19.73.12-3.15.24-6.3.36-9.45,6.68.28,7.39,4.29,7.09,9.97-.48,9.12-.12,18.28-.13,27.43q0,7.19-7.06,7.54Z"/>
  <path class="cls-2" d="M299.69,317.9c-.06,3.79-.12,7.57-.19,11.36-.28-.03-.56-.05-.84-.06-.08-.32-.14-.64-.18-.97-.59-15.53-1.17-31.07-1.75-46.6-.21-4.52-.43-9.04-.65-13.56,1.02-9.72-1.27-19.34-.83-29.05.71-.03,1.42-.07,2.13-.1,1.34,7.23.26,14.57,1.02,21.83.08,8.02.06,16.05.27,24.07.09,3.35-.86,6.85.98,10.05.01,7.68.03,15.36.04,23.03Z"/>
  <path class="cls-4" d="M366.83,177.4c.14,1.14.27,2.28.41,3.43-.08,7.67-.12,15.34-.25,23.01-.03,1.65.49,3.44-.77,4.91-1.88-.79-2.3-2.35-2.29-4.2.04-7.91.1-15.82.02-23.73-.02-2.17.86-3.17,2.88-3.42Z"/>
  <path class="cls-6" d="M354.05,194.98c-.26-.6-.52-1.21-.77-1.81.16-5.2.32-10.4.49-15.61,3.63-.39,5.47.81,5.01,4.87-.35,3.06-.36,6.21-.07,9.28.4,4.18-1.34,4.69-4.65,3.26Z"/>
  <path class="cls-5" d="M296.72,281.63c.59,15.53,1.17,31.07,1.76,46.6-.57.05-1.14.09-1.71.14-.24-8.91-.45-17.82-.75-26.73-.09-2.56-.43-5.12-.66-7.68.03-4.15.06-8.29.09-12.44.42.04.85.07,1.27.11Z"/>
  <path class="cls-3" d="M353.44,248.27c-2.97-.83-5.96-1.6-8.9-2.51-.92-.29-2.14-.7-1.98-2.01.11-.89.92-1.44,1.82-1.62,3.2-.66,5.64-3.46,9.15-3.21.13,2.03.27,4.05.4,6.08-.16,1.09-.33,2.19-.49,3.28Z"/>
  <path class="cls-2" d="M319.37,302.81c-1.49-1.69-1.03-3.76-1.15-5.73.56-12.85-1.8-25.63-.98-38.48.56-.04,1.12-.09,1.67-.13.21,4.98.43,9.96.64,14.94-.06,9.8-.13,19.6-.19,29.4Z"/>
  <path class="cls-4" d="M319.56,273.41c-.21-4.98-.43-9.96-.64-14.94.11-1.67.22-3.34.33-5.01.49-.09.97-.17,1.46-.26,1.06,6.7.63,13.44.46,20.17-.53.01-1.07.03-1.6.04Z"/>
  <path class="cls-6" d="M353.44,248.27c.16-1.09.32-2.19.49-3.28,1.91.2,3.43-2.34,5.25-1.12,1.11.75.85,2.68.34,3.88-1.14,2.68-3.51,1.18-5.41,1.23-.15-.31-.37-.55-.66-.72Z"/>
  <path class="cls-14" d="M298.66,329.2c.28,0,.56.03.84.06,2.14,2.92.55,6.27,1.07,9.37-.06,1.36.19,2.92-1.89,3.01,0-4.15-.01-8.29-.02-12.44Z"/>
  <path class="cls-7" d="M231.17,365.39c-.44.8-.9.94-1.38.03.46-.01.92-.02,1.38-.03Z"/>
  <path class="cls-3" d="M298.41,357.53c-.33.27-.66.54-.98.82.33-.27.66-.54.98-.82Z"/>
  <path class="cls-13" d="M224.87,108.07c-2.63,8.16-8.81,14.31-12.4,21.95-1.37,2.92-3.48,5.49-5.26,8.22-8.51-5.05-15.82-11.25-19.32-20.88-.78-2.15-1.6-3.24-3.9-2.11,0-.63,0-1.27,0-1.9.63-1.03,1.26-2.07,1.89-3.1,4.85-7.73,9.71-15.45,14.56-23.18,3.39-1.38,5.32.7,6.49,3.26,1.48,3.21,3.87,5.16,7.01,6.32,1.76.65,3.17,1.73,3.58,3.42,1,4.1,3.95,6.22,7.35,8.01Z"/>
  <path class="cls-11" d="M185.88,110.25c-.63,1.03-1.26,2.07-1.89,3.1-1.32.49-1.79,1.58-2.02,2.84-.23.4-.46.8-.69,1.2-.19.37-.38.74-.57,1.1-.35.12-.55.36-.59.73-5.59,9.42-11.18,18.85-16.77,28.27-4.03,6.33-8.18,12.59-12.08,19.01-14.58,24.02-30.36,47.24-46.35,70.33-.61-.36-1.21-.73-1.82-1.09,9.32-15.09,18.62-30.2,27.98-45.26,10.36-16.66,20.77-33.29,31.18-49.92,1.81-2.89,3.74-5.71,5.61-8.57,4.84-7.29,9.68-14.59,14.52-21.88,1.16.04,2.33.08,3.5.12Z"/>
  <path class="cls-10" d="M251.88,36.28l-7.33-18.77c3.74,2.18,5.11,5.87,7.12,9.07,4.56,7.26,8.93,14.64,13.38,21.97,1.37,2.26,1.54,4.48,0,6.77-4.96,7.41-9.74,14.95-14.91,22.21-1.47,2.06-2.88,5.64-6.82,3.5,1.66-6.25,6.13-11.05,8.72-16.85,1.67-3.75,3.96-7.23,6.11-10.75,1.02-1.67,1.1-3.19.22-4.85-2.17-4.1-4.33-8.2-6.5-12.3Z"/>
  <path class="cls-2" d="M185.88,110.25c-1.17-.04-2.33-.08-3.5-.12,5.59-9.73,11.52-19.22,18.49-28.03.96.37.87,1.23.95,2.01-.46.99-.92,1.98-1.38,2.96-4.85,7.73-9.71,15.45-14.56,23.18Z"/>
  <path class="cls-12" d="M201.82,84.11c-.07-.78.01-1.64-.95-2.01,3.72-5.9,7.43-11.8,11.15-17.71.39.23.78.46,1.17.69-3.3,6.61-7.22,12.89-11.37,19.03Z"/>
  <polygon class="cls-12" points="213.57 63 213.9 62.82 213.88 63.2 213.57 63"/>
  <path class="cls-12" d="M104.92,236.85c15.99-23.09,31.77-46.31,46.35-70.33,3.89-6.42,8.05-12.68,12.08-19.01,5.91-.18,8.25,4.41,9.4,8.61,2.18,7.99,6.9,14.26,11.62,20.67-10.57,18.77-20.87,37.69-32.57,55.79-4.31.2-7.61,2.39-9.97,5.73-3.69,5.22-8.81,8.49-14.09,11.83-5.53,3.5-11.53,6.23-16.64,10.43-8.86,7.28-18.91,12.16-30.17,14.49,5.24-8.05,10.63-16,15.68-24.17,2.86-4.62,6.68-8.69,8.32-14.04Z"/>
  <path class="cls-1" d="M184.37,176.79c-4.71-6.41-9.43-12.68-11.62-20.67-1.15-4.21-3.49-8.8-9.4-8.61,5.59-9.42,11.18-18.85,16.77-28.27.2-.24.39-.49.59-.73.19-.37.38-.74.57-1.1.31.02.62-.02.92-.1.27.14.54.28.8.42.03-.5.07-1,.1-1.51v.13c.38-.36.75-.73,1.11-1.09,0,0-.21,0-.21,0,2.3-1.13,3.12-.04,3.9,2.11,3.5,9.63,10.81,15.83,19.32,20.88-7.62,12.85-15.23,25.7-22.85,38.55Z"/>
  <path class="cls-1" d="M80.93,275.06c11.26-2.32,21.32-7.2,30.17-14.49,5.11-4.2,11.11-6.93,16.64-10.43,5.28-3.34,10.4-6.61,14.09-11.83,2.36-3.34,5.67-5.53,9.97-5.73-4.49,7.54-8.97,15.09-13.46,22.63-3.15,6.02-8.7,8.62-14.67,11.14-17.28,7.28-34.36,15.01-51.52,22.57-.37.11-.74.21-1.11.32-.17-.49-.33-.97-.5-1.46,1.53-2,3.07-3.99,4.6-5.99.36-.81.72-1.61,1.09-2.41,0,0-.02,0-.02,0,.35-.36.71-.71,1.06-1.06,0,0-.03.03-.03.03.35-.36.71-.72,1.06-1.07,0,0-.03.03-.03.03.89-.75,1.79-1.51,2.68-2.26Z"/>
  <path class="cls-9" d="M143.19,258.32c-.72.17-1.79.71-2.08.43-.87-.82.23-1.26.72-1.78.45.45.91.9,1.36,1.35Z"/>
  <path class="cls-13" d="M91.58,351.08c-1.62,1.31-3.12.34-4.63-.27-3.69-1.38-5.99,2.1-9.17,2.66-1.92.34-3.58,1.83-5.69,1.77.02-2.41-1.78-3.82-3.38-4.86-10.25-6.71-11.37-18.26-15.34-28.3,9.44-4.56,19.72-6.85,29.32-11,1.26-.54,2.62-.53,3.01.94,2.52,9.51,11.07,14.66,16.08,22.37,1.14,1.75,1.55,3.37,1.5,5.28-6.32,1.32-9.1,6.27-11.69,11.41Z"/>
  <path class="cls-15" d="M53.37,322.07c3.97,10.04,5.09,21.6,15.34,28.3,1.6,1.04,3.39,2.46,3.38,4.86-1.99,3.37-5.9,3.34-8.9,4.83-8.63,4.29-17.45,8.2-26.24,12.16-1.47.66-3.03,1.6-6.19.65,4.57-2.31,8.2-4.15,11.84-5.97.3-.15.67-.17.99-.29,8.09-3.08,8.56-4.33,2.15-9.98-4.14-3.65-5.83-8.67-8.99-12.81,4.49-6.98,8.97-13.95,13.46-20.93,1.05-.28,2.1-.55,3.15-.82Z"/>
  <path class="cls-12" d="M194.03,300.73c-13.91,6.91-28.27,12.75-42.71,18.42-3.75-9.07-12.68-14.33-16.96-23.03-.9-1.83-2.55-3.36-1.1-5.59,4.68-2.51,9.61-4.36,14.7-5.82,6.03,6.89,8.2,15.82,12.34,23.71,1.95,3.72,3.3,4.26,6.94,2.37,8.41-4.37,17.15-8.08,26.32-10.62.15.19.31.38.47.57Z"/>
  <path class="cls-11" d="M147.97,284.7c-5.09,1.46-10.03,3.31-14.7,5.82-2.47.8-4.95,1.6-7.42,2.4-1.04-.14-2.27.27-2.92-1.02,9.02-4.18,18.03-8.36,27.05-12.54,27.53-11.28,55.04-22.61,82.61-33.81,6.96-2.83,14.1-5.21,21.16-7.8,0,0,.06.17.06.17-.04.68-.08,1.36-.13,2.04,0,0,.02.09.02.09-1.01.48-2.03.97-3.04,1.45-8.85,3.65-17.74,7.22-26.55,10.98-4.8,2.05-9.46,4.42-14.19,6.64l-.21-.11c-2.83.86-5.58,1.86-8.04,3.55l.07-.16c-2.01.39-3.85,1.17-5.51,2.36-7.41,2.13-14.14,5.95-21.31,8.65-8.98,3.75-17.96,7.51-26.95,11.26Z"/>
  <path class="cls-2" d="M122.93,291.9c.64,1.29,1.87.88,2.92,1.02-6.82,2.73-13.65,5.46-20.47,8.19-.82-.14-1.77.02-2.22-.96,6.59-2.75,13.18-5.5,19.77-8.25Z"/>
  <path class="cls-12" d="M103.16,300.15c.45.99,1.4.82,2.22.96-5.07,2.72-10.47,4.52-16.09,5.79,4.19-3.2,8.95-5.14,13.87-6.76Z"/>
  <path class="cls-4" d="M271.42,119.65c-5.23-4.99-8.12-11.51-11.49-17.71,5.62-.11,11.23-.02,16.7-1.92,2.91-1.01,5.1-.25,5.75,3.57.49,2.92.37,5.77.49,8.66-4.7,1.1-7.27,5.5-11.44,7.41Z"/>
  <path class="cls-7" d="M271.42,119.65c4.17-1.91,6.74-6.31,11.44-7.41.33.02.66.04.98.07.37,7.93.73,15.86,1.1,23.79-2.48.87-4.34.9-5.86-2.02-2.51-4.83-6.72-8.76-7.66-14.44Z"/>
  <path class="cls-6" d="M198.77,367.68c-.07.14-.14.27-.21.41.08-.13.16-.26.23-.39,0,0-.03-.02-.03-.02Z"/>
  <path class="cls-2" d="M80.93,275.06c-.89.75-1.79,1.51-2.68,2.26-.58-1.56.51-2.67,1.2-3.78,7.85-12.61,15.76-25.19,23.65-37.77.61.36,1.21.73,1.82,1.09-1.64,5.35-5.46,9.42-8.32,14.04-5.05,8.17-10.43,16.12-15.68,24.17Z"/>
  <path class="cls-2" d="M76.21,279.39c-.36.8-.72,1.6-1.09,2.41.36-.8.72-1.61,1.09-2.41Z"/>
  <path class="cls-2" d="M77.26,278.33c-.35.35-.71.71-1.06,1.06.35-.35.71-.71,1.06-1.06Z"/>
  <path class="cls-2" d="M78.28,277.28c-.35.36-.71.72-1.06,1.07.03-.68.17-1.24,1.06-1.07Z"/>
  <path class="cls-9" d="M260,288.86c-.15,10.92.66,21.87-.97,32.76-.23,1.51.17,3.22-2.06,3.47-.03-18.74-.04-37.48-.1-56.23,0-2.05-.22-4.11-.33-6.16.08-6.17.16-12.35.23-18.52,0-1.43-.02-2.87-.03-4.3-.01-.64-.02-1.28-.03-1.91.08-16.74.15-33.47.24-50.21.01-1.89.18-3.78.27-5.67,8.99-4.99,16.34-12.19,24.55-18.23,1.09-.8,2.15-1.65,3.23-2.47,2.84-2.09,5.69-4.17,8.53-6.26,12.7-9,25.05-18.48,37.21-28.19,1.7-1.06,3.4-2.12,5.1-3.18.11,2.63-1.71,3.83-3.55,5.24-12.55,9.61-25.03,19.3-37.51,29-.64.49-1.02,1.31-1.52,1.98-.5.62-.99,1.23-1.49,1.85-.83.19-1.84.13-2.47.59-9.69,7.16-19.35,14.38-28.97,21.63-1.58,1.19-1.37,3.09-1.28,4.8.25,4.81.71,9.61.82,14.42.2,8.8.21,17.61.3,26.42-.07,1.36-.13,2.72-.2,4.08.12,1.1.23,2.19.35,3.29-1.17,5.1-.44,10.22-.25,15.34.01,8.29.03,16.58.04,24.87-.05,3.86-.09,7.72-.14,11.58Z"/>
  <path class="cls-4" d="M293.55,155.12c-2.84,2.09-5.69,4.17-8.53,6.26.04-5.68.08-11.37.13-17.05,3.44,1.86,2.38,7.35,6.8,8.41.16,1.05.13,2.22,1.6,2.39Z"/>
  <path class="cls-13" d="M174.91,273.44c7.18-2.71,13.9-6.52,21.31-8.65,2.18,0,4.43.2,5.51-2.36,0,0-.07.16-.07.16,3.14-.15,6.49.18,8.04-3.56,0,0,.21.11.21.12,1.36.84,2.6.35,3.92-.2,2.71-1.13,6.83-4.95,5.02,2.78-.36,1.54,1.49,3.74,2.59,5.46,3.82,5.94,7.19,11.99,6.34,19.44-8.46,3.8-16.72,8.08-25.76,10.43-1.16.07-2.46-.32-3.22,1.01l-3.13.28c-6.85-7.5-15.82-13.27-19.22-23.6-.18-.55-1.01-.88-1.54-1.32Z"/>
  <path class="cls-15" d="M227.79,286.63c.85-7.45-2.52-13.5-6.34-19.44-1.11-1.72-2.96-3.92-2.59-5.46,1.81-7.73-2.3-3.91-5.02-2.78-1.32.55-2.56,1.04-3.92.2,4.73-2.23,9.39-4.6,14.19-6.65,8.81-3.76,17.69-7.33,26.55-10.98,1.44,8.26,1.03,16.61,1.1,24.93.02,1.77.58,3.33,1.89,4.58-.01,1.43-.02,2.86-.04,4.3-1.15,4.36-3.5,6.32-8.43,5.71-4.5-.55-8.49,2.23-12.61,3.83-1.58.62-2.94,1.84-4.78,1.77Z"/>
  <path class="cls-3" d="M253.61,275.32c.01-1.43.02-2.86.04-4.3.18-8.99.36-17.97.54-26.96.87.04,1.74.08,2.61.11-.08,6.17-.15,12.35-.23,18.52-2.54.87-1.48,3.05-1.7,4.74-.47,3.62.91,7.39-.88,10.9-.12-1.01-.24-2.02-.36-3.02Z"/>
  <path class="cls-12" d="M195.68,298.36c1.04-.09,2.09-.19,3.13-.28,0,0,.44.05.44.05l.44-.04c-1.47,1.76-3.77,1.77-5.65,2.64-.16-.19-.31-.38-.47-.57.7-.6,1.41-1.2,2.11-1.8Z"/>
  <path class="cls-1" d="M199.68,298.09l-.44.04s-.44-.04-.44-.05c.76-1.33,2.06-.94,3.22-1.01-.53.9-1.43.96-2.34,1.02Z"/>
  <path class="cls-13" d="M71.03,289.25c.37-.11.74-.21,1.11-.32-.27.47-.61.66-1.11.32Z"/>
  <path class="cls-3" d="M253.65,232.75c1.42.86,1.39,1.89.37,3.04-.12-1.01-.24-2.02-.37-3.04Z"/>
  <path class="cls-1" d="M153.1,276.32c.34-.25.69-.5,1.03-.75.23,1.13-.75.42-1.07.71,0,0,.04.04.04.04Z"/>
  <path class="cls-8" d="M52.64,373.24c-.01.11.02.27-.04.31-.1.07-.25.06-.38.09.02-.18.04-.36.06-.53.12.05.24.09.37.14Z"/>
  <path class="cls-3" d="M256.73,237.96c.01.64.02,1.28.04,1.91-1.03.03-2.06.06-3.09.09.04-.68.08-1.36.13-2.04.97.01,1.95.02,2.92.03Z"/>
  <path class="cls-4" d="M295.31,163.25c7.12-.4,13.47,3.08,20.31,4.08.19,5.88.65,11.77-.25,17.63-4.34.65-6.83-1.55-9.21-5-3.03-4.4-5.16-9.57-9.83-12.73-.32-.34-.65-.67-.97-1.01-.02-.99-.04-1.99-.06-2.98Z"/>
  <path class="cls-9" d="M315.37,184.96c.9-5.87.43-11.75.25-17.63,1.05-2.07-.25-4.67,1.1-6.67.49.02.98.04,1.47.06,0,10.49,0,20.99,0,31.49.29,4.1.58,8.21.87,12.31-.14,2.48-.27,4.96-.41,7.44-.29,4.28-.95,8.57.36,12.81-.57,9.57-.41,19.14.24,28.7-.11,1.67-.22,3.34-.33,5.01-.56.04-1.12.09-1.68.13-.15-1.38-.31-2.77-.46-4.15.57-2.4.3-4.79-.11-7.17.44-1.81.44-3.58-.32-5.32-.09-2.74-.18-5.48-.28-8.22-.05-6.21-.11-12.42-.16-18.64-.05-1.1-.11-2.19-.16-3.29.36-1.51.32-3-.31-4.44.92-4.05.79-8.07-.33-12.07.62-3.43.75-6.88.26-10.34Z"/>
  <path class="cls-5" d="M295.31,163.25c.02.99.04,1.99.06,2.98-1.82,7.28-.81,14.63-.58,21.95.07,5.34.13,10.68.2,16.01-.93-.08-2.69,1.49-2.38-1.13,1.65-13.79-.41-27.5-.81-41.25.5-.62.99-1.23,1.49-1.85.24,1.36.98,2.42,2.03,3.27Z"/>
  <path class="cls-2" d="M260,288.86c.05-3.86.09-7.72.14-11.58,9.07-3.58,18.4-6.52,26.9-11.42,2.5,1.04,6.43-2.9,7.75,2.24-.63,4.52-.49,9,.66,13.43-.03,4.15-.06,8.29-.09,12.44-11.79-1.7-23.57-3.4-35.36-5.1Z"/>
  <path class="cls-4" d="M336.9,246.2c-5.57.58-10.17,4.06-15.56,5.19-.86-4.16-1.4-8.34-.84-12.6,6.02.67,11.42,3.37,16.97,5.47,2.17.82.76,1.61-.58,1.94Z"/>
  <path class="cls-6" d="M320.5,238.79c-.57,4.26-.03,8.44.84,12.6-.21.6-.42,1.21-.63,1.81-.49.09-.98.17-1.46.26-.64-9.56-.81-19.13-.24-28.7,2.58,4.46.27,9.44,1.49,14.04Z"/>
  <path class="cls-5" d="M316.78,254.45c.15,1.39.31,2.77.46,4.15-.82,12.86,1.55,25.63.98,38.48-6.37.72-12.31-2.1-18.58-2.22-1.84-3.2-.89-6.69-.98-10.05-.21-8.02-.2-16.05-.27-24.07,1.81.12,3.29-.92,4.93-1.35,4.66-1.22,8.35-5.04,13.46-4.96Z"/>
  <path class="cls-7" d="M294.79,268.09c-1.31-5.14-5.25-1.2-7.75-2.24-5.11-3.61-11-6.14-15.36-10.74-3.38-3.56-7.06-4.65-11.59-2.71-.19-5.12-.92-10.25.25-15.34,5.08-.16,8.62-4.03,13.19-5.47,7.3-2.29,13.62-7.22,21.49-7.97-.23,5.14-1.89,10.3.21,15.41-.44,9.7,1.85,19.33.83,29.05-.43,0-.85.01-1.28.02Z"/>
  <path class="cls-6" d="M316.78,254.45c-5.12-.08-8.8,3.73-13.46,4.96-1.64.43-3.12,1.47-4.93,1.35-.76-7.26.33-14.6-1.02-21.83.07-3.8.14-7.61.21-11.41,2.32-.32,4.3.58,6.29,1.62,3.87,2.02,7.97,3.49,12.19,4.6.09,2.74.18,5.48.28,8.22-1.69,1.88-2.13,3.69.32,5.32.41,2.38.68,4.77.11,7.17Z"/>
  <path class="cls-11" d="M297.59,227.51c-.07,3.8-.14,7.61-.21,11.41-.71.03-1.42.07-2.13.1-2.11-5.11-.44-10.27-.21-15.41.25-.92.25-1.76-.65-2.35.03-1.51.05-3.02.08-4.53,1.67-4.12.89-8.34.53-12.55-.07-5.34-.13-10.68-.2-16.01.51-.04,1.02-.08,1.53-.12.57,4.83-.38,9.77,1.04,14.55.09,3.81.18,7.63.27,11.44,0,1.69,0,3.37,0,5.06l.27,2.3c-.62,2.01-.84,4.04-.3,6.11Z"/>
  <path class="cls-4" d="M294.79,268.09c.43,0,.86-.01,1.28-.02.22,4.52.44,9.04.65,13.56-.43-.04-.85-.07-1.27-.11-1.15-4.43-1.29-8.91-.66-13.43Z"/>
  <path class="cls-2" d="M181.97,116.2c.24-1.26.7-2.36,2.02-2.84,0,.64,0,1.27,0,1.9,0,0,.21,0,.21,0-.91-.18-1.04.42-1.1,1.09,0,0-.01-.13-.01-.13-.3.02-.59.09-.86.21l-.27-.23Z"/>
  <path class="cls-2" d="M180.7,118.5c-.2.24-.39.49-.59.73.04-.37.24-.61.59-.73Z"/>
  <path class="cls-2" d="M182.19,117.3c-.3.08-.61.12-.92.1.23-.4.46-.8.69-1.2,0,0,.27.23.27.23.02.29,0,.59-.05.88Z"/>
  <path class="cls-13" d="M182.19,117.3c.05-.29.07-.58.05-.88.28-.12.56-.19.86-.21-.04.5-.07,1-.11,1.51-.27-.14-.54-.28-.8-.42Z"/>
  <path class="cls-13" d="M183.11,116.34c.06-.67.19-1.27,1.1-1.09-.37.36-.73.73-1.1,1.09Z"/>
  <path class="cls-1" d="M195.68,298.36c-.7.6-1.41,1.2-2.11,1.8-9.18,2.55-17.91,6.26-26.32,10.62-3.65,1.89-4.99,1.35-6.94-2.37-4.13-7.89-6.31-16.82-12.34-23.71,8.98-3.75,17.97-7.51,26.95-11.26.53.44,1.36.77,1.54,1.32,3.4,10.33,12.37,16.09,19.22,23.6Z"/>
  <path class="cls-8" d="M254.18,244.06c-.18,8.99-.36,17.97-.54,26.96-1.31-1.25-1.87-2.81-1.89-4.58-.08-8.32.34-16.66-1.1-24.93,1.01-.49,2.03-.97,3.04-1.45.16,1.33.33,2.67.49,4Z"/>
  <path class="cls-2" d="M254.18,244.06c-.16-1.33-.32-2.67-.49-4,0,0-.02-.09-.02-.09,1.03-.03,2.06-.06,3.09-.09,0,1.43.02,2.87.03,4.3-.87-.04-1.74-.08-2.61-.11Z"/>
  <path class="cls-15" d="M209.71,259.03c-1.55,3.74-4.9,3.41-8.04,3.56,2.45-1.69,5.21-2.7,8.04-3.56Z"/>
  <path class="cls-15" d="M201.74,262.42c-1.08,2.56-3.33,2.37-5.51,2.36,1.66-1.19,3.5-1.98,5.51-2.36Z"/>
  <path class="cls-2" d="M294.98,204.2c.37,4.21,1.14,8.43-.53,12.55-2.93.18-5.6,1.07-8.32,2.24-8.58,3.71-16.94,7.98-25.94,10.7-.09-8.81-.1-17.62-.3-26.42-.11-4.81-.57-9.61-.82-14.42-.09-1.72-.31-3.61,1.28-4.8,9.62-7.25,19.28-14.47,28.97-21.63.63-.46,1.64-.41,2.47-.59.4,13.75,2.46,27.46.81,41.25-.31,2.62,1.45,1.04,2.38,1.13Z"/>
  <path class="cls-14" d="M260.1,252.4c4.53-1.94,8.21-.85,11.59,2.71,4.36,4.6,10.25,7.13,15.36,10.74-8.5,4.9-17.84,7.85-26.9,11.42-.01-8.29-.03-16.58-.04-24.87Z"/>
  <path class="cls-7" d="M260.2,229.69c8.99-2.72,17.35-6.99,25.94-10.7,2.72-1.17,5.39-2.06,8.32-2.24-.03,1.51-.05,3.01-.08,4.52-2.03-.23-3.6.99-5.37,1.65-9.66,3.64-19.03,8.07-29.01,10.85.07-1.36.13-2.72.2-4.08Z"/>
  <path class="cls-2" d="M260,233.77c9.98-2.79,19.35-7.22,29.01-10.85,1.76-.66,3.34-1.88,5.37-1.65.9.59.91,1.43.65,2.35-7.87.75-14.2,5.68-21.49,7.97-4.57,1.43-8.11,5.31-13.19,5.47-.12-1.09-.23-2.19-.35-3.29Z"/>
  <path class="cls-5" d="M297.36,202.61c-1.42-4.77-.46-9.71-1.04-14.55,0-6.94.01-13.88.02-20.82,4.66,3.16,6.8,8.33,9.83,12.73,2.38,3.45,4.87,5.65,9.21,5,.49,3.46.36,6.9-.26,10.34-2-.27-3.6.8-5.3,1.59-4.14,1.93-8.3,3.82-12.46,5.72Z"/>
  <path class="cls-2" d="M296.34,167.24c0,6.94-.01,13.88-.02,20.82-.51.04-1.02.08-1.53.12-.23-7.33-1.24-14.68.58-21.95.32.34.65.67.97,1.01Z"/>
  <path class="cls-5" d="M297.59,227.51c-.54-2.07-.31-4.1.3-6.11,2.71.18,4.86-1.31,7.14-2.39,3.5-1.65,6.79-3.88,10.87-3.92.05,6.21.11,12.42.16,18.64-4.22-1.11-8.32-2.58-12.19-4.6-1.99-1.04-3.97-1.94-6.29-1.62Z"/>
  <path class="cls-7" d="M297.36,202.61c4.15-1.91,8.31-3.79,12.46-5.72,1.69-.79,3.29-1.85,5.3-1.59,1.12,4,1.25,8.02.33,12.07-5.94,2.23-11.88,4.45-17.81,6.68-.09-3.81-.18-7.63-.27-11.44Z"/>
  <path class="cls-5" d="M297.63,214.05c5.94-2.23,11.87-4.45,17.81-6.68.63,1.44.67,2.93.31,4.44-6.04,2.43-12.08,4.86-18.12,7.3,0-1.69,0-3.37,0-5.06Z"/>
  <path class="cls-7" d="M297.63,219.11c6.04-2.43,12.08-4.86,18.12-7.3.05,1.1.11,2.19.16,3.29-4.08.04-7.37,2.27-10.87,3.92-2.29,1.07-4.44,2.56-7.14,2.39-.09-.77-.18-1.53-.27-2.3Z"/>
  <path class="cls-5" d="M316.67,247.27c-2.45-1.63-2-3.44-.32-5.32.76,1.73.76,3.51.32,5.32Z"/>
</svg>